<svg width="105" height="40" viewBox="0 0 105 40" fill="none" xmlns="http://www.w3.org/2000/svg">
<path fill-rule="evenodd" clip-rule="evenodd" d="M23.7439 16.7916C23.7439 17.9422 24.6766 18.875 25.8272 18.875C26.9778 18.875 27.9105 17.9422 27.9105 16.7916C27.9105 15.641 26.9778 14.7083 25.8272 14.7083C24.6766 14.7083 23.7439 15.641 23.7439 16.7916ZM24.8272 16.7916C24.8272 17.3439 25.2749 17.7916 25.8272 17.7916C26.3795 17.7916 26.8272 17.3439 26.8272 16.7916C26.8272 16.2394 26.3795 15.7916 25.8272 15.7916C25.2749 15.7916 24.8272 16.2394 24.8272 16.7916Z" fill="#505050"/>
<path fill-rule="evenodd" clip-rule="evenodd" d="M33.2083 15C33.2083 13.6193 32.089 12.5 30.7083 12.5H24.0416C22.6609 12.5 21.5416 13.6193 21.5416 15V23.3333C21.5416 24.714 22.6609 25.8333 24.0416 25.8333H24.0426L24.0416 25.835H30.7083C32.089 25.835 33.2083 24.7157 33.2083 23.335V15ZM30.7083 24.75C31.4907 24.75 32.1249 24.1157 32.1249 23.3333V22.1626L30.6465 20.0242C30.2009 19.3797 29.2396 19.4067 28.831 20.0753L25.9743 24.75H30.7083ZM31.5376 19.4081L32.1249 20.2576V15C32.1249 14.2176 31.4907 13.5833 30.7083 13.5833H24.0416C23.2592 13.5833 22.6249 14.2176 22.6249 15V23.3333C22.6249 24.1157 23.2592 24.75 24.0416 24.75H24.7046L27.9066 19.5104C28.7238 18.1733 30.6464 18.1191 31.5376 19.4081Z" fill="#505050"/>
<path d="M19.8749 16.9583C19.5758 16.9583 19.3333 17.2008 19.3333 17.5V25.3333C19.3333 26.8291 20.5458 28.0417 22.0416 28.0417H29.0416C29.3407 28.0417 29.5833 27.7992 29.5833 27.5C29.5833 27.2008 29.3407 26.9583 29.0416 26.9583H22.0416C21.1441 26.9583 20.4166 26.2308 20.4166 25.3333V17.5C20.4166 17.2008 20.1741 16.9583 19.8749 16.9583Z" fill="#505050"/>
<path d="M48.8262 21.0967H46.167V20.0234H48.8262C49.3411 20.0234 49.7581 19.9414 50.0771 19.7773C50.3962 19.6133 50.6286 19.3854 50.7744 19.0938C50.9248 18.8021 51 18.4694 51 18.0957C51 17.7539 50.9248 17.4326 50.7744 17.1318C50.6286 16.8311 50.3962 16.5895 50.0771 16.4072C49.7581 16.2204 49.3411 16.127 48.8262 16.127H46.4746V25H45.1553V15.0469H48.8262C49.5781 15.0469 50.2139 15.1768 50.7334 15.4365C51.2529 15.6963 51.6471 16.0563 51.916 16.5166C52.1849 16.9723 52.3193 17.4941 52.3193 18.082C52.3193 18.7201 52.1849 19.2646 51.916 19.7158C51.6471 20.167 51.2529 20.5111 50.7334 20.748C50.2139 20.9805 49.5781 21.0967 48.8262 21.0967ZM55.0605 14.5V25H53.7959V14.5H55.0605ZM54.7598 21.0215L54.2334 21.001C54.238 20.4951 54.3132 20.028 54.459 19.5996C54.6048 19.1667 54.8099 18.7907 55.0742 18.4717C55.3385 18.1527 55.653 17.9066 56.0176 17.7334C56.3867 17.5557 56.7946 17.4668 57.2412 17.4668C57.6058 17.4668 57.9339 17.5169 58.2256 17.6172C58.5173 17.7129 58.7656 17.8678 58.9707 18.082C59.1803 18.2962 59.3398 18.5742 59.4492 18.916C59.5586 19.2533 59.6133 19.6657 59.6133 20.1533V25H58.3418V20.1396C58.3418 19.7523 58.2848 19.4424 58.1709 19.21C58.057 18.973 57.8906 18.8021 57.6719 18.6973C57.4531 18.5879 57.1842 18.5332 56.8652 18.5332C56.5508 18.5332 56.2637 18.5993 56.0039 18.7314C55.7487 18.8636 55.5277 19.0459 55.3408 19.2783C55.1585 19.5107 55.015 19.7773 54.9102 20.0781C54.8099 20.3743 54.7598 20.6888 54.7598 21.0215ZM61.1719 21.3838V21.2266C61.1719 20.6934 61.2493 20.1989 61.4043 19.7432C61.5592 19.2829 61.7826 18.8841 62.0742 18.5469C62.3659 18.2051 62.7191 17.9408 63.1338 17.7539C63.5485 17.5625 64.0133 17.4668 64.5283 17.4668C65.0479 17.4668 65.515 17.5625 65.9297 17.7539C66.349 17.9408 66.7044 18.2051 66.9961 18.5469C67.2923 18.8841 67.5179 19.2829 67.6729 19.7432C67.8278 20.1989 67.9053 20.6934 67.9053 21.2266V21.3838C67.9053 21.917 67.8278 22.4115 67.6729 22.8672C67.5179 23.3229 67.2923 23.7217 66.9961 24.0635C66.7044 24.4007 66.3512 24.665 65.9365 24.8564C65.5264 25.0433 65.0615 25.1367 64.542 25.1367C64.0225 25.1367 63.5553 25.0433 63.1406 24.8564C62.7259 24.665 62.3704 24.4007 62.0742 24.0635C61.7826 23.7217 61.5592 23.3229 61.4043 22.8672C61.2493 22.4115 61.1719 21.917 61.1719 21.3838ZM62.4365 21.2266V21.3838C62.4365 21.7529 62.4798 22.1016 62.5664 22.4297C62.653 22.7533 62.7829 23.0404 62.9561 23.291C63.1338 23.5417 63.3548 23.7399 63.6191 23.8857C63.8835 24.027 64.1911 24.0977 64.542 24.0977C64.8883 24.0977 65.1914 24.027 65.4512 23.8857C65.7155 23.7399 65.9342 23.5417 66.1074 23.291C66.2806 23.0404 66.4105 22.7533 66.4971 22.4297C66.5882 22.1016 66.6338 21.7529 66.6338 21.3838V21.2266C66.6338 20.862 66.5882 20.5179 66.4971 20.1943C66.4105 19.8662 66.2783 19.5768 66.1006 19.3262C65.9274 19.071 65.7087 18.8704 65.4443 18.7246C65.1846 18.5788 64.8792 18.5059 64.5283 18.5059C64.182 18.5059 63.8766 18.5788 63.6123 18.7246C63.3525 18.8704 63.1338 19.071 62.9561 19.3262C62.7829 19.5768 62.653 19.8662 62.5664 20.1943C62.4798 20.5179 62.4365 20.862 62.4365 21.2266ZM72.5879 17.6035V18.5742H68.5889V17.6035H72.5879ZM69.9424 15.8057H71.207V23.168C71.207 23.4186 71.2458 23.6077 71.3232 23.7354C71.4007 23.863 71.501 23.9473 71.624 23.9883C71.7471 24.0293 71.8792 24.0498 72.0205 24.0498C72.1253 24.0498 72.2347 24.0407 72.3486 24.0225C72.4671 23.9997 72.556 23.9814 72.6152 23.9678L72.6221 25C72.5218 25.0319 72.3896 25.0615 72.2256 25.0889C72.0661 25.1208 71.8724 25.1367 71.6445 25.1367C71.3346 25.1367 71.0498 25.0752 70.79 24.9521C70.5303 24.8291 70.3229 24.624 70.168 24.3369C70.0176 24.0452 69.9424 23.6533 69.9424 23.1611V15.8057ZM73.5996 21.3838V21.2266C73.5996 20.6934 73.6771 20.1989 73.832 19.7432C73.987 19.2829 74.2103 18.8841 74.502 18.5469C74.7936 18.2051 75.1468 17.9408 75.5615 17.7539C75.9762 17.5625 76.4411 17.4668 76.9561 17.4668C77.4756 17.4668 77.9427 17.5625 78.3574 17.7539C78.7767 17.9408 79.1322 18.2051 79.4238 18.5469C79.7201 18.8841 79.9456 19.2829 80.1006 19.7432C80.2555 20.1989 80.333 20.6934 80.333 21.2266V21.3838C80.333 21.917 80.2555 22.4115 80.1006 22.8672C79.9456 23.3229 79.7201 23.7217 79.4238 24.0635C79.1322 24.4007 78.779 24.665 78.3643 24.8564C77.9541 25.0433 77.4893 25.1367 76.9697 25.1367C76.4502 25.1367 75.9831 25.0433 75.5684 24.8564C75.1536 24.665 74.7982 24.4007 74.502 24.0635C74.2103 23.7217 73.987 23.3229 73.832 22.8672C73.6771 22.4115 73.5996 21.917 73.5996 21.3838ZM74.8643 21.2266V21.3838C74.8643 21.7529 74.9076 22.1016 74.9941 22.4297C75.0807 22.7533 75.2106 23.0404 75.3838 23.291C75.5615 23.5417 75.7826 23.7399 76.0469 23.8857C76.3112 24.027 76.6188 24.0977 76.9697 24.0977C77.3161 24.0977 77.6191 24.027 77.8789 23.8857C78.1432 23.7399 78.362 23.5417 78.5352 23.291C78.7083 23.0404 78.8382 22.7533 78.9248 22.4297C79.016 22.1016 79.0615 21.7529 79.0615 21.3838V21.2266C79.0615 20.862 79.016 20.5179 78.9248 20.1943C78.8382 19.8662 78.7061 19.5768 78.5283 19.3262C78.3551 19.071 78.1364 18.8704 77.8721 18.7246C77.6123 18.5788 77.307 18.5059 76.9561 18.5059C76.6097 18.5059 76.3044 18.5788 76.04 18.7246C75.7803 18.8704 75.5615 19.071 75.3838 19.3262C75.2106 19.5768 75.0807 19.8662 74.9941 20.1943C74.9076 20.5179 74.8643 20.862 74.8643 21.2266ZM86.2256 23.0381C86.2256 22.8558 86.1846 22.6872 86.1025 22.5322C86.0251 22.3727 85.8633 22.2292 85.6172 22.1016C85.3757 21.9694 85.0111 21.8555 84.5234 21.7598C84.1133 21.6732 83.7419 21.5706 83.4092 21.4521C83.0811 21.3337 82.8008 21.1901 82.5684 21.0215C82.3405 20.8529 82.165 20.6546 82.042 20.4268C81.9189 20.1989 81.8574 19.9323 81.8574 19.627C81.8574 19.3353 81.9212 19.0596 82.0488 18.7998C82.181 18.54 82.3656 18.3099 82.6025 18.1094C82.8441 17.9089 83.1335 17.7516 83.4707 17.6377C83.8079 17.5238 84.1839 17.4668 84.5986 17.4668C85.1911 17.4668 85.6969 17.5716 86.1162 17.7812C86.5355 17.9909 86.8568 18.2712 87.0801 18.6221C87.3034 18.9684 87.415 19.3535 87.415 19.7773H86.1504C86.1504 19.5723 86.0889 19.374 85.9658 19.1826C85.8473 18.9867 85.6719 18.8249 85.4395 18.6973C85.2116 18.5697 84.9313 18.5059 84.5986 18.5059C84.2477 18.5059 83.9629 18.5605 83.7441 18.6699C83.5299 18.7747 83.3727 18.9092 83.2725 19.0732C83.1768 19.2373 83.1289 19.4105 83.1289 19.5928C83.1289 19.7295 83.1517 19.8525 83.1973 19.9619C83.2474 20.0667 83.334 20.1647 83.457 20.2559C83.5801 20.3424 83.7533 20.4245 83.9766 20.502C84.1999 20.5794 84.4847 20.6569 84.8311 20.7344C85.4372 20.8711 85.9362 21.0352 86.3281 21.2266C86.7201 21.418 87.0117 21.6527 87.2031 21.9307C87.3945 22.2087 87.4902 22.5459 87.4902 22.9424C87.4902 23.266 87.4219 23.5622 87.2852 23.8311C87.153 24.0999 86.9593 24.3324 86.7041 24.5283C86.4535 24.7197 86.1527 24.8701 85.8018 24.9795C85.4554 25.0843 85.0658 25.1367 84.6328 25.1367C83.9811 25.1367 83.4297 25.0205 82.9785 24.7881C82.5273 24.5557 82.1855 24.2549 81.9531 23.8857C81.7207 23.5166 81.6045 23.127 81.6045 22.7168H82.876C82.8942 23.0632 82.9945 23.3389 83.1768 23.5439C83.359 23.7445 83.5824 23.888 83.8467 23.9746C84.111 24.0566 84.373 24.0977 84.6328 24.0977C84.9792 24.0977 85.2686 24.0521 85.501 23.9609C85.738 23.8698 85.918 23.7445 86.041 23.585C86.1641 23.4255 86.2256 23.2432 86.2256 23.0381Z" fill="#505050"/>
</svg>
