<svg width="68" height="40" viewBox="0 0 68 40" fill="none" xmlns="http://www.w3.org/2000/svg">
<path fill-rule="evenodd" clip-rule="evenodd" d="M21.3335 20C21.3335 21.841 19.8411 23.3334 18.0001 23.3334C16.1592 23.3334 14.6668 21.841 14.6668 20C14.6668 18.1591 16.1592 16.6667 18.0001 16.6667C19.8411 16.6667 21.3335 18.1591 21.3335 20ZM20.2501 20C20.2501 21.2427 19.2428 22.25 18.0001 22.25C16.7575 22.25 15.7501 21.2427 15.7501 20C15.7501 18.7574 16.7575 17.75 18.0001 17.75C19.2428 17.75 20.2501 18.7574 20.2501 20Z" fill="#505050"/>
<path fill-rule="evenodd" clip-rule="evenodd" d="M17.1527 12.5042C16.4146 12.5042 15.7895 13.0484 15.688 13.7795C15.5622 14.6862 14.6166 15.2321 13.7685 14.8878C13.0846 14.6101 12.3007 14.8793 11.9316 15.5185L11.1344 16.8994C10.7698 17.5309 10.9199 18.3338 11.4881 18.7909C12.2227 19.3819 12.2106 20.5217 11.4564 21.109C10.874 21.5624 10.7151 22.3758 11.0842 23.015L11.8815 24.396C12.246 25.0274 13.0165 25.2989 13.6964 25.0354C14.5755 24.6947 15.5566 25.2751 15.688 26.2219C15.7895 26.9529 16.4146 27.4972 17.1527 27.4972H18.7472C19.4764 27.4972 20.0967 26.9657 20.2084 26.2452C20.3604 25.2654 21.3793 24.6771 22.3039 25.0354C22.9837 25.2989 23.7542 25.0274 24.1188 24.396L24.916 23.015C25.2851 22.3758 25.1262 21.5624 24.5438 21.109C23.7896 20.5217 23.7775 19.3819 24.5122 18.7909C25.0803 18.3338 25.2304 17.5309 24.8659 16.8994L24.0686 15.5185C23.6995 14.8793 22.9156 14.6101 22.2318 14.8878C21.3461 15.2474 20.3529 14.6879 20.2084 13.7562C20.0967 13.0357 19.4764 12.5042 18.7472 12.5042H17.1527ZM16.7611 13.9285C16.7882 13.733 16.9553 13.5875 17.1527 13.5875L18.7472 13.5875C18.9422 13.5875 19.108 13.7296 19.1379 13.9222C19.3915 15.5574 21.1181 16.5092 22.6393 15.8915C22.8221 15.8173 23.0317 15.8893 23.1304 16.0602L23.9277 17.4411C24.0251 17.6099 23.985 17.8246 23.8331 17.9468C22.5438 18.984 22.5829 20.9552 23.8783 21.9638C24.034 22.085 24.0765 22.3025 23.9778 22.4734L23.1806 23.8543C23.0831 24.0231 22.8771 24.0957 22.6953 24.0253C21.1257 23.417 19.3959 24.4157 19.1379 26.0792C19.108 26.2718 18.9422 26.4139 18.7472 26.4139H17.1527C16.9553 26.4139 16.7882 26.2684 16.7611 26.0729C16.5354 24.4467 14.8478 23.4273 13.3049 24.0253C13.1231 24.0957 12.9171 24.0231 12.8197 23.8543L12.0224 22.4734C11.9237 22.3025 11.9662 22.085 12.1219 21.9638C13.4174 20.9552 13.4564 18.984 12.1671 17.9468C12.0152 17.8246 11.9751 17.6099 12.0726 17.4411L12.8698 16.0602C12.9685 15.8893 13.1781 15.8173 13.3609 15.8915C14.8632 16.5015 16.5382 15.5345 16.7611 13.9285Z" fill="#505050"/>
<path d="M43.7139 17.9963C43.7139 17.8163 43.7839 17.6463 43.9239 17.5163C44.1939 17.2763 44.6039 17.2963 44.8439 17.5563L47.9901 21.0495L51.0079 17.5602C51.2479 17.2902 51.6579 17.2802 51.9279 17.5202C52.1879 17.7602 52.2079 18.1702 51.9679 18.4402L48.5101 22.4195C48.2301 22.7295 47.7501 22.7295 47.4701 22.4195L43.8839 18.4363C43.7639 18.3063 43.7139 18.1563 43.7139 17.9963Z" fill="#8F8F8F"/>
</svg>
