<svg width="98" height="40" viewBox="0 0 98 40" fill="none" xmlns="http://www.w3.org/2000/svg">
<path fill-rule="evenodd" clip-rule="evenodd" d="M30.7083 12.7917C32.089 12.7917 33.2083 13.911 33.2083 15.2917V23.6251C33.2083 25.0058 32.089 26.1251 30.7083 26.1251H24.0416C22.6609 26.1251 21.5416 25.0058 21.5416 23.6251V15.2917C21.5416 13.911 22.6609 12.7917 24.0416 12.7917H30.7083ZM24.0416 13.8751H30.7083C31.4907 13.8751 32.1249 14.5093 32.1249 15.2917V23.6251C32.1249 24.4075 31.4907 25.0417 30.7083 25.0417H24.0416C23.2592 25.0417 22.6249 24.4075 22.6249 23.6251V15.2917C22.6249 14.5093 23.2592 13.8751 24.0416 13.8751ZM19.3333 17.7917C19.3333 17.4926 19.5758 17.2501 19.8749 17.2501C20.1741 17.2501 20.4166 17.4926 20.4166 17.7917V25.6251C20.4166 26.5225 21.1441 27.2501 22.0416 27.2501H29.0416C29.3407 27.2501 29.5833 27.4926 29.5833 27.7917C29.5833 28.0909 29.3407 28.3334 29.0416 28.3334H22.0416C20.5458 28.3334 19.3333 27.1209 19.3333 25.6251V17.7917ZM27.687 16.5813C27.687 16.8805 27.4445 17.123 27.1454 17.123L24.8919 17.123C24.5927 17.123 24.3502 16.8805 24.3502 16.5813C24.3502 16.2822 24.5927 16.0396 24.8919 16.0396L27.1454 16.0396C27.4445 16.0396 27.687 16.2822 27.687 16.5813ZM29.8568 20.0479C30.1559 20.0479 30.3984 19.8054 30.3984 19.5062C30.3984 19.2071 30.1559 18.9645 29.8568 18.9645L24.8919 18.9646C24.5927 18.9646 24.3502 19.2071 24.3502 19.5062C24.3502 19.8054 24.5927 20.0479 24.8919 20.0479L29.8568 20.0479ZM30.3984 22.4311C30.3984 22.7303 30.1559 22.9728 29.8568 22.9728L24.8919 22.9728C24.5927 22.9728 24.3502 22.7303 24.3502 22.4311C24.3502 22.132 24.5927 21.8895 24.8919 21.8895L29.8568 21.8895C30.1559 21.8895 30.3984 22.132 30.3984 22.4311Z" fill="#505050"/>
<path d="M52.8115 15.0469V25H51.4854L46.4746 17.3232V25H45.1553V15.0469H46.4746L51.5059 22.7441V15.0469H52.8115ZM54.623 21.3838V21.2266C54.623 20.6934 54.7005 20.1989 54.8555 19.7432C55.0104 19.2829 55.2337 18.8841 55.5254 18.5469C55.8171 18.2051 56.1702 17.9408 56.585 17.7539C56.9997 17.5625 57.4645 17.4668 57.9795 17.4668C58.499 17.4668 58.9661 17.5625 59.3809 17.7539C59.8001 17.9408 60.1556 18.2051 60.4473 18.5469C60.7435 18.8841 60.9691 19.2829 61.124 19.7432C61.279 20.1989 61.3564 20.6934 61.3564 21.2266V21.3838C61.3564 21.917 61.279 22.4115 61.124 22.8672C60.9691 23.3229 60.7435 23.7217 60.4473 24.0635C60.1556 24.4007 59.8024 24.665 59.3877 24.8564C58.9775 25.0433 58.5127 25.1367 57.9932 25.1367C57.4736 25.1367 57.0065 25.0433 56.5918 24.8564C56.1771 24.665 55.8216 24.4007 55.5254 24.0635C55.2337 23.7217 55.0104 23.3229 54.8555 22.8672C54.7005 22.4115 54.623 21.917 54.623 21.3838ZM55.8877 21.2266V21.3838C55.8877 21.7529 55.931 22.1016 56.0176 22.4297C56.1042 22.7533 56.234 23.0404 56.4072 23.291C56.585 23.5417 56.806 23.7399 57.0703 23.8857C57.3346 24.027 57.6423 24.0977 57.9932 24.0977C58.3395 24.0977 58.6426 24.027 58.9023 23.8857C59.1667 23.7399 59.3854 23.5417 59.5586 23.291C59.7318 23.0404 59.8617 22.7533 59.9482 22.4297C60.0394 22.1016 60.085 21.7529 60.085 21.3838V21.2266C60.085 20.862 60.0394 20.5179 59.9482 20.1943C59.8617 19.8662 59.7295 19.5768 59.5518 19.3262C59.3786 19.071 59.1598 18.8704 58.8955 18.7246C58.6357 18.5788 58.3304 18.5059 57.9795 18.5059C57.6331 18.5059 57.3278 18.5788 57.0635 18.7246C56.8037 18.8704 56.585 19.071 56.4072 19.3262C56.234 19.5768 56.1042 19.8662 56.0176 20.1943C55.931 20.5179 55.8877 20.862 55.8877 21.2266ZM66.0391 17.6035V18.5742H62.04V17.6035H66.0391ZM63.3936 15.8057H64.6582V23.168C64.6582 23.4186 64.6969 23.6077 64.7744 23.7354C64.8519 23.863 64.9521 23.9473 65.0752 23.9883C65.1982 24.0293 65.3304 24.0498 65.4717 24.0498C65.5765 24.0498 65.6859 24.0407 65.7998 24.0225C65.9183 23.9997 66.0072 23.9814 66.0664 23.9678L66.0732 25C65.973 25.0319 65.8408 25.0615 65.6768 25.0889C65.5173 25.1208 65.3236 25.1367 65.0957 25.1367C64.7858 25.1367 64.501 25.0752 64.2412 24.9521C63.9814 24.8291 63.7741 24.624 63.6191 24.3369C63.4688 24.0452 63.3936 23.6533 63.3936 23.1611V15.8057ZM70.5918 25.1367C70.0768 25.1367 69.6097 25.0501 69.1904 24.877C68.7757 24.6992 68.418 24.4508 68.1172 24.1318C67.821 23.8128 67.5931 23.4346 67.4336 22.9971C67.2741 22.5596 67.1943 22.0811 67.1943 21.5615V21.2744C67.1943 20.6729 67.2832 20.1374 67.4609 19.668C67.6387 19.194 67.8802 18.793 68.1855 18.4648C68.4909 18.1367 68.8372 17.8883 69.2246 17.7197C69.612 17.5511 70.013 17.4668 70.4277 17.4668C70.9564 17.4668 71.4121 17.5579 71.7949 17.7402C72.1823 17.9225 72.499 18.1777 72.7451 18.5059C72.9912 18.8294 73.1735 19.2122 73.292 19.6543C73.4105 20.0918 73.4697 20.5703 73.4697 21.0898V21.6572H67.9463V20.625H72.2051V20.5293C72.1868 20.2012 72.1185 19.8822 72 19.5723C71.8861 19.2624 71.7038 19.0072 71.4531 18.8066C71.2025 18.6061 70.8607 18.5059 70.4277 18.5059C70.1406 18.5059 69.8763 18.5674 69.6348 18.6904C69.3932 18.8089 69.1859 18.9867 69.0127 19.2236C68.8395 19.4606 68.7051 19.75 68.6094 20.0918C68.5137 20.4336 68.4658 20.8278 68.4658 21.2744V21.5615C68.4658 21.9124 68.5137 22.2428 68.6094 22.5527C68.7096 22.8581 68.8532 23.127 69.04 23.3594C69.2314 23.5918 69.4616 23.7741 69.7305 23.9062C70.0039 24.0384 70.3138 24.1045 70.6602 24.1045C71.1068 24.1045 71.485 24.0133 71.7949 23.8311C72.1048 23.6488 72.376 23.4049 72.6084 23.0996L73.374 23.708C73.2145 23.9495 73.0117 24.1797 72.7656 24.3984C72.5195 24.6172 72.2165 24.7949 71.8564 24.9316C71.501 25.0684 71.0794 25.1367 70.5918 25.1367ZM79.2529 23.0381C79.2529 22.8558 79.2119 22.6872 79.1299 22.5322C79.0524 22.3727 78.8906 22.2292 78.6445 22.1016C78.403 21.9694 78.0384 21.8555 77.5508 21.7598C77.1406 21.6732 76.7692 21.5706 76.4365 21.4521C76.1084 21.3337 75.8281 21.1901 75.5957 21.0215C75.3678 20.8529 75.1924 20.6546 75.0693 20.4268C74.9463 20.1989 74.8848 19.9323 74.8848 19.627C74.8848 19.3353 74.9486 19.0596 75.0762 18.7998C75.2083 18.54 75.3929 18.3099 75.6299 18.1094C75.8714 17.9089 76.1608 17.7516 76.498 17.6377C76.8353 17.5238 77.2113 17.4668 77.626 17.4668C78.2184 17.4668 78.7243 17.5716 79.1436 17.7812C79.5628 17.9909 79.8841 18.2712 80.1074 18.6221C80.3307 18.9684 80.4424 19.3535 80.4424 19.7773H79.1777C79.1777 19.5723 79.1162 19.374 78.9932 19.1826C78.8747 18.9867 78.6992 18.8249 78.4668 18.6973C78.2389 18.5697 77.9587 18.5059 77.626 18.5059C77.2751 18.5059 76.9902 18.5605 76.7715 18.6699C76.5573 18.7747 76.4001 18.9092 76.2998 19.0732C76.2041 19.2373 76.1562 19.4105 76.1562 19.5928C76.1562 19.7295 76.179 19.8525 76.2246 19.9619C76.2747 20.0667 76.3613 20.1647 76.4844 20.2559C76.6074 20.3424 76.7806 20.4245 77.0039 20.502C77.2272 20.5794 77.512 20.6569 77.8584 20.7344C78.4645 20.8711 78.9635 21.0352 79.3555 21.2266C79.7474 21.418 80.0391 21.6527 80.2305 21.9307C80.4219 22.2087 80.5176 22.5459 80.5176 22.9424C80.5176 23.266 80.4492 23.5622 80.3125 23.8311C80.1803 24.0999 79.9867 24.3324 79.7314 24.5283C79.4808 24.7197 79.18 24.8701 78.8291 24.9795C78.4827 25.0843 78.0931 25.1367 77.6602 25.1367C77.0085 25.1367 76.457 25.0205 76.0059 24.7881C75.5547 24.5557 75.2129 24.2549 74.9805 23.8857C74.748 23.5166 74.6318 23.127 74.6318 22.7168H75.9033C75.9215 23.0632 76.0218 23.3389 76.2041 23.5439C76.3864 23.7445 76.6097 23.888 76.874 23.9746C77.1383 24.0566 77.4004 24.0977 77.6602 24.0977C78.0065 24.0977 78.2959 24.0521 78.5283 23.9609C78.7653 23.8698 78.9453 23.7445 79.0684 23.585C79.1914 23.4255 79.2529 23.2432 79.2529 23.0381Z" fill="#505050"/>
</svg>
