<svg width="107" height="40" viewBox="0 0 107 40" fill="none" xmlns="http://www.w3.org/2000/svg">
<path fill-rule="evenodd" clip-rule="evenodd" d="M24.1898 12.5C21.9689 12.5 20.2428 14.4333 20.4936 16.64L20.7119 18.5616C20.913 20.3305 22.4096 21.6667 24.1898 21.6667C25.97 21.6667 27.4666 20.3305 27.6676 18.5617L27.886 16.64C28.1368 14.4334 26.4107 12.5 24.1898 12.5ZM26.5912 18.4393L26.8096 16.5177C26.9873 14.9537 25.7639 13.5833 24.1898 13.5833C22.6157 13.5833 21.3923 14.9537 21.57 16.5177L21.7884 18.4393C21.9271 19.6607 22.9606 20.5833 24.1898 20.5833C25.419 20.5833 26.4524 19.6607 26.5912 18.4393Z" fill="#505050"/>
<path fill-rule="evenodd" clip-rule="evenodd" d="M22.6451 22.5C20.3016 22.5 18.2725 24.1277 17.7642 26.4153L17.6809 26.7901C17.5999 27.1544 17.8771 27.5 18.2503 27.5H30.1293C30.5025 27.5 30.7797 27.1544 30.6987 26.7901L30.6154 26.4153C30.107 24.1277 28.078 22.5 25.7345 22.5H22.6451ZM29.4984 26.4167C29.0192 24.7485 27.4894 23.5833 25.7345 23.5833H22.6451C20.8902 23.5833 19.3604 24.7485 18.8812 26.4167H29.4984Z" fill="#505050"/>
<path d="M27.8104 21.6667C27.4936 21.6667 27.3806 21.2819 27.579 21.0349C27.6181 20.9862 27.6562 20.9368 27.6933 20.8865C27.8301 20.7013 28.0395 20.5836 28.2657 20.5404C29.2865 20.3453 30.0906 19.5063 30.2118 18.4393L30.4302 16.5177C30.5809 15.1911 29.7236 14.0039 28.4993 13.674C28.2056 13.5948 27.932 13.439 27.7408 13.2024C27.6994 13.1512 27.6571 13.1009 27.6137 13.0514C27.4294 12.8416 27.5311 12.5 27.8104 12.5C30.0312 12.5 31.7573 14.4334 31.5066 16.64L31.2882 18.5617C31.0872 20.3305 29.5906 21.6667 27.8104 21.6667Z" fill="#505050"/>
<path d="M32.0953 27.5C31.8098 27.5 31.6062 27.207 31.6031 26.9215C31.6002 26.6599 31.7874 26.4167 32.049 26.4167H33.119C32.7548 25.149 31.784 24.1718 30.5688 23.7757C30.3949 23.719 30.2482 23.637 30.1356 23.4929C29.8327 23.105 30.0968 22.5305 30.5741 22.6503C32.375 23.1027 33.8185 24.5364 34.236 26.4153L34.3193 26.7901C34.4002 27.1544 34.123 27.5 33.7498 27.5H32.0953Z" fill="#505050"/>
<path d="M46.4746 15.0469V25H45.1553V15.0469H46.4746ZM50.6445 19.5244V20.6045H46.1875V19.5244H50.6445ZM51.3213 15.0469V16.127H46.1875V15.0469H51.3213ZM53.7891 18.7656V25H52.5244V17.6035H53.7549L53.7891 18.7656ZM56.0996 17.5625L56.0928 18.7383C55.988 18.7155 55.8877 18.7018 55.792 18.6973C55.7008 18.6882 55.596 18.6836 55.4775 18.6836C55.1859 18.6836 54.9284 18.7292 54.7051 18.8203C54.4818 18.9115 54.2926 19.0391 54.1377 19.2031C53.9827 19.3672 53.8597 19.5632 53.7686 19.791C53.682 20.0143 53.625 20.2604 53.5977 20.5293L53.2422 20.7344C53.2422 20.2878 53.2855 19.8685 53.3721 19.4766C53.4632 19.0846 53.6022 18.7383 53.7891 18.4375C53.9759 18.1322 54.2129 17.8952 54.5 17.7266C54.7917 17.5534 55.138 17.4668 55.5391 17.4668C55.6302 17.4668 55.735 17.4782 55.8535 17.501C55.972 17.5192 56.054 17.5397 56.0996 17.5625ZM58.6426 17.6035V25H57.3711V17.6035H58.6426ZM57.2754 15.6416C57.2754 15.4365 57.3369 15.2633 57.46 15.1221C57.5876 14.9808 57.7744 14.9102 58.0205 14.9102C58.262 14.9102 58.4466 14.9808 58.5742 15.1221C58.7064 15.2633 58.7725 15.4365 58.7725 15.6416C58.7725 15.8376 58.7064 16.0062 58.5742 16.1475C58.4466 16.2842 58.262 16.3525 58.0205 16.3525C57.7744 16.3525 57.5876 16.2842 57.46 16.1475C57.3369 16.0062 57.2754 15.8376 57.2754 15.6416ZM63.7422 25.1367C63.2272 25.1367 62.7601 25.0501 62.3408 24.877C61.9261 24.6992 61.5684 24.4508 61.2676 24.1318C60.9714 23.8128 60.7435 23.4346 60.584 22.9971C60.4245 22.5596 60.3447 22.0811 60.3447 21.5615V21.2744C60.3447 20.6729 60.4336 20.1374 60.6113 19.668C60.7891 19.194 61.0306 18.793 61.3359 18.4648C61.6413 18.1367 61.9876 17.8883 62.375 17.7197C62.7624 17.5511 63.1634 17.4668 63.5781 17.4668C64.1068 17.4668 64.5625 17.5579 64.9453 17.7402C65.3327 17.9225 65.6494 18.1777 65.8955 18.5059C66.1416 18.8294 66.3239 19.2122 66.4424 19.6543C66.5609 20.0918 66.6201 20.5703 66.6201 21.0898V21.6572H61.0967V20.625H65.3555V20.5293C65.3372 20.2012 65.2689 19.8822 65.1504 19.5723C65.0365 19.2624 64.8542 19.0072 64.6035 18.8066C64.3529 18.6061 64.0111 18.5059 63.5781 18.5059C63.291 18.5059 63.0267 18.5674 62.7852 18.6904C62.5436 18.8089 62.3363 18.9867 62.1631 19.2236C61.9899 19.4606 61.8555 19.75 61.7598 20.0918C61.6641 20.4336 61.6162 20.8278 61.6162 21.2744V21.5615C61.6162 21.9124 61.6641 22.2428 61.7598 22.5527C61.86 22.8581 62.0036 23.127 62.1904 23.3594C62.3818 23.5918 62.612 23.7741 62.8809 23.9062C63.1543 24.0384 63.4642 24.1045 63.8105 24.1045C64.2572 24.1045 64.6354 24.0133 64.9453 23.8311C65.2552 23.6488 65.5264 23.4049 65.7588 23.0996L66.5244 23.708C66.3649 23.9495 66.1621 24.1797 65.916 24.3984C65.6699 24.6172 65.3669 24.7949 65.0068 24.9316C64.6514 25.0684 64.2298 25.1367 63.7422 25.1367ZM69.3613 19.1826V25H68.0967V17.6035H69.293L69.3613 19.1826ZM69.0605 21.0215L68.5342 21.001C68.5387 20.4951 68.6139 20.028 68.7598 19.5996C68.9056 19.1667 69.1107 18.7907 69.375 18.4717C69.6393 18.1527 69.9538 17.9066 70.3184 17.7334C70.6875 17.5557 71.0954 17.4668 71.542 17.4668C71.9066 17.4668 72.2347 17.5169 72.5264 17.6172C72.818 17.7129 73.0664 17.8678 73.2715 18.082C73.4811 18.2962 73.6406 18.5742 73.75 18.916C73.8594 19.2533 73.9141 19.6657 73.9141 20.1533V25H72.6426V20.1396C72.6426 19.7523 72.5856 19.4424 72.4717 19.21C72.3577 18.973 72.1914 18.8021 71.9727 18.6973C71.7539 18.5879 71.485 18.5332 71.166 18.5332C70.8516 18.5332 70.5645 18.5993 70.3047 18.7314C70.0495 18.8636 69.8285 19.0459 69.6416 19.2783C69.4593 19.5107 69.3158 19.7773 69.2109 20.0781C69.1107 20.3743 69.0605 20.6888 69.0605 21.0215ZM80.4971 23.5645V14.5H81.7686V25H80.6064L80.4971 23.5645ZM75.5205 21.3838V21.2402C75.5205 20.6751 75.5889 20.1624 75.7256 19.7021C75.8669 19.2373 76.0651 18.8385 76.3203 18.5059C76.5801 18.1732 76.8877 17.918 77.2432 17.7402C77.6032 17.5579 78.0042 17.4668 78.4463 17.4668C78.9111 17.4668 79.3167 17.5488 79.6631 17.7129C80.014 17.8724 80.3102 18.1071 80.5518 18.417C80.7979 18.7223 80.9915 19.0915 81.1328 19.5244C81.2741 19.9574 81.3721 20.4473 81.4268 20.9941V21.623C81.3766 22.1654 81.2786 22.653 81.1328 23.0859C80.9915 23.5189 80.7979 23.888 80.5518 24.1934C80.3102 24.4987 80.014 24.7334 79.6631 24.8975C79.3122 25.057 78.902 25.1367 78.4326 25.1367C77.9997 25.1367 77.6032 25.0433 77.2432 24.8564C76.8877 24.6696 76.5801 24.4076 76.3203 24.0703C76.0651 23.7331 75.8669 23.3366 75.7256 22.8809C75.5889 22.4206 75.5205 21.9215 75.5205 21.3838ZM76.792 21.2402V21.3838C76.792 21.7529 76.8285 22.0993 76.9014 22.4229C76.9788 22.7464 77.0973 23.0312 77.2568 23.2773C77.4163 23.5234 77.6191 23.7171 77.8652 23.8584C78.1113 23.9951 78.4053 24.0635 78.7471 24.0635C79.1663 24.0635 79.5104 23.9746 79.7793 23.7969C80.0527 23.6191 80.2715 23.3844 80.4355 23.0928C80.5996 22.8011 80.7272 22.4844 80.8184 22.1426V20.4951C80.7637 20.2445 80.6839 20.0029 80.5791 19.7705C80.4788 19.5335 80.3467 19.3239 80.1826 19.1416C80.0231 18.9548 79.8249 18.8066 79.5879 18.6973C79.3555 18.5879 79.0798 18.5332 78.7607 18.5332C78.4144 18.5332 78.1159 18.6061 77.8652 18.752C77.6191 18.8932 77.4163 19.0892 77.2568 19.3398C77.0973 19.5859 76.9788 19.873 76.9014 20.2012C76.8285 20.5247 76.792 20.8711 76.792 21.2402ZM88.0439 23.0381C88.0439 22.8558 88.0029 22.6872 87.9209 22.5322C87.8434 22.3727 87.6816 22.2292 87.4355 22.1016C87.194 21.9694 86.8294 21.8555 86.3418 21.7598C85.9316 21.6732 85.5602 21.5706 85.2275 21.4521C84.8994 21.3337 84.6191 21.1901 84.3867 21.0215C84.1589 20.8529 83.9834 20.6546 83.8604 20.4268C83.7373 20.1989 83.6758 19.9323 83.6758 19.627C83.6758 19.3353 83.7396 19.0596 83.8672 18.7998C83.9993 18.54 84.1839 18.3099 84.4209 18.1094C84.6624 17.9089 84.9518 17.7516 85.2891 17.6377C85.6263 17.5238 86.0023 17.4668 86.417 17.4668C87.0094 17.4668 87.5153 17.5716 87.9346 17.7812C88.3538 17.9909 88.6751 18.2712 88.8984 18.6221C89.1217 18.9684 89.2334 19.3535 89.2334 19.7773H87.9688C87.9688 19.5723 87.9072 19.374 87.7842 19.1826C87.6657 18.9867 87.4902 18.8249 87.2578 18.6973C87.0299 18.5697 86.7497 18.5059 86.417 18.5059C86.0661 18.5059 85.7812 18.5605 85.5625 18.6699C85.3483 18.7747 85.1911 18.9092 85.0908 19.0732C84.9951 19.2373 84.9473 19.4105 84.9473 19.5928C84.9473 19.7295 84.9701 19.8525 85.0156 19.9619C85.0658 20.0667 85.1523 20.1647 85.2754 20.2559C85.3984 20.3424 85.5716 20.4245 85.7949 20.502C86.0182 20.5794 86.3031 20.6569 86.6494 20.7344C87.2555 20.8711 87.7546 21.0352 88.1465 21.2266C88.5384 21.418 88.8301 21.6527 89.0215 21.9307C89.2129 22.2087 89.3086 22.5459 89.3086 22.9424C89.3086 23.266 89.2402 23.5622 89.1035 23.8311C88.9714 24.0999 88.7777 24.3324 88.5225 24.5283C88.2718 24.7197 87.971 24.8701 87.6201 24.9795C87.2738 25.0843 86.8841 25.1367 86.4512 25.1367C85.7995 25.1367 85.248 25.0205 84.7969 24.7881C84.3457 24.5557 84.0039 24.2549 83.7715 23.8857C83.5391 23.5166 83.4229 23.127 83.4229 22.7168H84.6943C84.7126 23.0632 84.8128 23.3389 84.9951 23.5439C85.1774 23.7445 85.4007 23.888 85.665 23.9746C85.9294 24.0566 86.1914 24.0977 86.4512 24.0977C86.7975 24.0977 87.0869 24.0521 87.3193 23.9609C87.5563 23.8698 87.7363 23.7445 87.8594 23.585C87.9824 23.4255 88.0439 23.2432 88.0439 23.0381Z" fill="#505050"/>
</svg>
